<svg width="24" height="24" viewBox="0 0 24 24" fill="none" xmlns="http://www.w3.org/2000/svg">
<path fill-rule="evenodd" clip-rule="evenodd" d="M3 4C3 3.44772 3.44772 3 4 3C5.30058 3 6.50489 3.63475 7.3047 4.16795C7.57582 4.34869 7.81666 4.52882 8.01834 4.68962C8.25264 4.51804 8.54118 4.32472 8.87886 4.13176C9.85493 3.574 11.2762 3 13 3C14.8379 3 16.3126 3.91519 17.2758 4.74074C17.7652 5.16027 18.1478 5.57781 18.4088 5.89106C18.5399 6.04835 18.6419 6.18116 18.7128 6.27724C18.7483 6.32532 18.7761 6.36436 18.796 6.39284L18.832 6.44529C19.056 6.78119 19.0556 7.21939 18.8317 7.55529L18.796 7.60715C18.7761 7.63562 18.7483 7.67466 18.7128 7.72275C18.6419 7.81883 18.5399 7.95164 18.4088 8.10893C18.1478 8.42218 17.7652 8.83972 17.2758 9.25925C16.3127 10.0848 14.8379 11 13 11C11.2762 11 9.85493 10.426 8.87886 9.86824C8.54118 9.67528 8.25264 9.48196 8.01834 9.31038C7.81666 9.47118 7.57582 9.6513 7.3047 9.83205C6.50489 10.3653 5.30058 11 4 11C3.73479 11 3.48043 10.8946 3.29289 10.7071C3.10536 10.5196 3 10.2652 3 10V4ZM16.7251 6.99999C16.5299 7.22065 16.2769 7.48132 15.9742 7.74074C15.1873 8.41519 14.1621 9 13 9C11.7238 9 10.6451 8.574 9.87114 8.13176C9.48625 7.91182 9.18534 7.69265 8.98407 7.53163C8.88374 7.45137 8.80909 7.38629 8.76208 7.34383C8.73861 7.32263 8.72211 7.30715 8.71285 7.29832L8.70467 7.29046L8.41421 7L8.70443 6.70977L8.71285 6.70168C8.72211 6.69285 8.73861 6.67737 8.76208 6.65617C8.80909 6.61371 8.88374 6.54863 8.98407 6.46837C9.18534 6.30735 9.48625 6.08818 9.87114 5.86824C10.6451 5.426 11.7238 5 13 5C14.1621 5 15.1874 5.58481 15.9742 6.25925C16.2769 6.51868 16.5299 6.77933 16.7251 6.99999ZM5 5.20334V8.79666C5.40612 8.64528 5.81481 8.42161 6.1953 8.16795C6.52913 7.94539 6.8093 7.72138 7.00546 7.55324C7.10302 7.46962 7.17842 7.401 7.22784 7.35488C7.25251 7.33185 7.27061 7.31453 7.28163 7.30386L7.29278 7.293L7.29392 7.29187L7.58579 7L7.29424 6.70845L7.29277 6.707L7.28163 6.69614C7.2706 6.68547 7.25251 6.66815 7.22784 6.64512C7.17842 6.599 7.10301 6.53038 7.00546 6.44676C6.8093 6.27862 6.52913 6.05461 6.1953 5.83205C5.81481 5.57839 5.40612 5.35471 5 5.20334Z" fill="#FFFFFF"/>
<path fill-rule="evenodd" clip-rule="evenodd" d="M6 14C6 13.4477 6.44772 13 7 13C8.30058 13 9.50489 13.6347 10.3047 14.1679C10.5758 14.3487 10.8167 14.5288 11.0183 14.6896C11.2526 14.518 11.5412 14.3247 11.8789 14.1318C12.8549 13.574 14.2762 13 16 13C17.8379 13 19.3126 13.9152 20.2758 14.7407C20.7652 15.1603 21.1478 15.5778 21.4088 15.8911C21.5399 16.0484 21.6419 16.1812 21.7128 16.2772C21.7483 16.3253 21.7761 16.3644 21.796 16.3928L21.8321 16.4453C22.056 16.7812 22.0556 17.2194 21.8317 17.5553L21.796 17.6071C21.7761 17.6356 21.7483 17.6747 21.7128 17.7228C21.6419 17.8188 21.5399 17.9516 21.4088 18.1089C21.1478 18.4222 20.7652 18.8397 20.2758 19.2593C19.3127 20.0848 17.8379 21 16 21C14.2762 21 12.8549 20.426 11.8789 19.8682C11.5412 19.6753 11.2526 19.482 11.0183 19.3104C10.8167 19.4712 10.5758 19.6513 10.3047 19.832C9.50489 20.3653 8.30058 21 7 21C6.73479 21 6.48043 20.8946 6.29289 20.7071C6.10536 20.5196 6 20.2652 6 20V14ZM19.7251 17C19.5299 17.2207 19.2769 17.4813 18.9742 17.7407C18.1873 18.4152 17.1621 19 16 19C14.7238 19 13.6451 18.574 12.8711 18.1318C12.4863 17.9118 12.1853 17.6926 11.9841 17.5316C11.8837 17.4514 11.8091 17.3863 11.7621 17.3438C11.7386 17.3226 11.7221 17.3071 11.7128 17.2983L11.7047 17.2905L11.4142 17L11.7044 16.7098L11.7128 16.7017C11.7221 16.6929 11.7386 16.6774 11.7621 16.6562C11.8091 16.6137 11.8837 16.5486 11.9841 16.4684C12.1853 16.3074 12.4863 16.0882 12.8711 15.8682C13.6451 15.426 14.7238 15 16 15C17.1621 15 18.1874 15.5848 18.9742 16.2593C19.2769 16.5187 19.5299 16.7793 19.7251 17ZM8 15.2033V18.7967C8.40612 18.6453 8.81481 18.4216 9.1953 18.1679C9.52913 17.9454 9.8093 17.7214 10.0055 17.5532C10.103 17.4696 10.1784 17.401 10.2278 17.3549C10.2525 17.3319 10.2706 17.3145 10.2816 17.3039L10.2928 17.293L10.2939 17.2919L10.5858 17L10.2942 16.7084L10.2928 16.707L10.2816 16.6961C10.2706 16.6855 10.2525 16.6681 10.2278 16.6451C10.1784 16.599 10.103 16.5304 10.0055 16.4468C9.8093 16.2786 9.52913 16.0546 9.1953 15.8321C8.81481 15.5784 8.40612 15.3547 8 15.2033Z" fill="#FFFFFF"/>
</svg>
